<?xml version="1.0" encoding="utf-8"?>
<!-- Generator: Adobe Illustrator 17.1.0, SVG Export Plug-In . SVG Version: 6.00 Build 0)  -->
<!DOCTYPE svg PUBLIC "-//W3C//DTD SVG 1.1//EN" "http://www.w3.org/Graphics/SVG/1.1/DTD/svg11.dtd">
<svg version="1.1" id="Layer_1" xmlns="http://www.w3.org/2000/svg" xmlns:xlink="http://www.w3.org/1999/xlink" x="0px" y="0px"
	 viewBox="0 143.1 612 499.5" enable-background="new 0 143.1 612 499.5" xml:space="preserve">
<g>
	<path fill="#FFFFFF" d="M154.4,462.7c-1.4,0-2.8,0-3.5-0.7l-137-83.1c-3.5-2.1-4.3-6.4-2.1-9.9l75.3-127.8c2.1-3.5,6.4-4.3,9.2-2.8
		c29.8,16.3,73.8,40.5,84.5,46.1c2.1-0.7,4.3-2.1,7.1-2.8c17-7.8,49-22,73.1-21.3c4.3,0,7.1,3.5,7.1,7.1s-3.5,7.1-7.1,7.1
		c-20.6-0.7-51.8,13.5-66.7,19.9c-10.6,5-12.8,5.7-15.6,4.3c-0.7,0-2.8-0.7-82.4-44.7L28,370.4l130.6,78.8c3.5,2.1,4.3,6.4,2.1,9.9
		C158.6,461.3,156.5,462.7,154.4,462.7z"/>
	<path fill="#FFFFFF" d="M465.3,447.8c-1.4,0-3.5-0.7-5-2.1l-67.4-63.9c-55.4-14.2-71-48.3-76.7-61.8c-4.3,0.7-10.6,1.4-21.3,1.4
		c-5,3.5-17.7,13.5-35.5,22.7c-16.3,8.5-32.7,5-39.8-7.1c-4.3-7.8-5-17-0.7-24.8c28.4-55.4,61.8-66.7,84.5-66.7
		c13.5,0,22,4.3,22.7,4.3l85.2,37.6L532,230.6c1.4-0.7,3.5-0.7,5.7,0s3.5,2.1,4.3,3.5l58.9,132.8c1.4,3.5,0,7.1-2.8,9.2l-129.2,71
		C467.5,447.8,466.7,447.8,465.3,447.8z M319.8,305.1c5.7,0,7.8,5,9.9,9.9c5.7,12.8,17.7,41.9,68.9,54c1.4,0,2.1,0.7,2.8,1.4
		l65.3,61.8l118.6-65.3l-53.2-120l-117.2,55.4c-2.1,0.7-4.3,0.7-5.7,0l-88-39c0,0-7.1-2.8-17-2.8c-19.2,0-46.9,9.9-71.7,58.9
		c-1.4,3.5-1.4,7.8,0.7,10.6c3.5,5.7,12.1,6.4,21.3,2.1c20.6-10.6,34.8-22,35.5-22c1.4-1.4,2.8-1.4,5-1.4h2.1
		c12.1,0,18.5-1.4,20.6-2.1C316.2,305.1,317.6,305.1,319.8,305.1z"/>
	<path fill="#FFFFFF" d="M445.4,480.5c-3.5,0-7.8-0.7-10.6-2.8c-4.3-2.8-59.6-45.4-71-54c-2.8-2.1-3.5-7.1-1.4-9.9s7.1-3.5,9.9-1.4
		c26.3,20.6,66.7,51.1,69.6,53.2c2.1,1.4,9.9,0,14.9-5c4.3-5,4.3-10.6-1.4-18.5c-2.1-3.5-1.4-7.8,2.1-9.9s7.8-1.4,9.9,2.1
		c9.2,13.5,9.2,27,0,36.9C462.5,476.9,453.3,480.5,445.4,480.5z"/>
	<path fill="#FFFFFF" d="M411.4,513.9c-5,0-9.2-1.4-12.8-3.5c-7.8-5.7-62.5-52.5-64.6-54c-2.8-2.8-3.5-7.1-0.7-9.9s7.1-3.5,9.9-0.7
		c19.2,16.3,57.5,49,63.9,53.2c1.4,0.7,6.4,2.1,11.4-1.4c7.1-4.3,9.2-13.5,7.8-27c-0.7-3.5,2.1-7.8,6.4-7.8c3.5-0.7,7.8,2.1,7.8,6.4
		c3.5,25.5-7.8,36.8-14.9,40.4C421.3,512.4,416.3,513.9,411.4,513.9z"/>
	<path fill="#FFFFFF" d="M379.4,541.5c-2.1,0-3.5,0-5.7-0.7c-17-5.7-59.6-46.1-64.6-51.1c-2.8-2.8-2.8-7.1,0-9.9s7.1-2.8,9.9,0
		c17,17,49,44.7,58.9,47.6c2.1,0.7,7.8-0.7,12.1-5.7c4.3-4.3,4.3-9.9,1.4-17c-1.4-3.5,0-7.8,3.5-9.2s7.8,0,9.2,3.5
		c5,12.1,3.5,23.4-4.3,31.9C395.7,538,387.2,541.5,379.4,541.5z"/>
	<path fill="#FFFFFF" d="M346.8,557.9c-17.7,0-42.6-17-50.4-22.7c-2.8-2.1-4.3-6.4-1.4-9.9c2.1-2.8,6.4-4.3,9.9-1.4
		c16.3,11.4,37.6,22,44.7,19.9c10.6-3.5,9.9-9.2,8.5-13.5c-1.4-3.5,0.7-7.8,4.3-9.2c3.5-1.4,7.8,0.7,9.2,4.3
		c5,14.2-1.4,25.6-17,31.9C351.7,557.9,349.6,557.9,346.8,557.9z"/>
	<path fill="#FFFFFF" d="M282.2,560.7c-17,0-35.5-12.1-35.5-30.5v-5.7c-0.7-21.3-1.4-50.4,27.7-51.8c22.7-1.4,27.7,15.6,29.8,24.8
		c2.8,10.6,4.3,29.8,0,48.3C301.3,555,292.8,560.7,282.2,560.7z M275.8,486.9c-0.7,0-0.7,0-1.4,0c-13.5,0.7-14.9,12.8-14.2,37.6v5.7
		c0,9.9,12.8,16.3,21.3,16.3c2.8,0,7.1-0.7,7.8-4.3c4.3-17.7,2.1-34.1,0-40.5C287.1,490.4,284.3,486.9,275.8,486.9z"/>
	<path fill="#FFFFFF" d="M250.2,547.9C249.5,547.9,249.5,547.9,250.2,547.9c-17-1.4-28.4-7.1-34.8-17c-9.2-14.9-4.3-33.4-1.4-40.5
		c3.5-9.2,16.3-39,39-36.9s27.7,23.4,27.7,24.1c0.7,3.5-1.4,7.8-5.7,8.5c-3.5,0.7-7.8-1.4-8.5-5.7c0-1.4-3.5-12.1-14.9-13.5
		c-10.6-1.4-20.6,17-24.8,27.7c-1.4,4.3-6.4,18.5,0,27.7c3.5,5.7,11.4,9.2,23.4,10.6c4.3,0,7.1,3.5,6.4,7.8
		C256.6,545.1,253.8,547.9,250.2,547.9z"/>
	<path fill="#FFFFFF" d="M208.3,528.8c-7.1,0-14.9-2.1-22-7.8c-6.4-5.7-13.5-16.3-11.4-36.2c2.1-17.7,12.1-33.4,26.3-42.6
		c9.2-5.7,19.2-7.8,25.6-5.7c14.2,5,19.2,24.1,19.2,26.3c0.7,3.5-1.4,7.8-5,8.5s-7.8-1.4-8.5-5l0,0c-1.4-4.3-5-14.2-9.9-15.6
		c-1.4-0.7-7.1,0-13.5,4.3c-5,3.5-17,12.8-19.9,31.9c-1.4,10.6,0.7,19.2,6.4,23.4c5.7,4.3,12.8,5,17.7,3.5c3.5-1.4,7.8,1.4,8.5,5
		c0.7,3.5-1.4,7.8-5,8.5C214.7,528.1,211.9,528.8,208.3,528.8z"/>
	<path fill="#FFFFFF" d="M181.3,503.9c-0.7,0-0.7,0-1.4,0c-1.4,0-27-5.7-33.4-24.8c-3.5-10.6-0.7-22.7,9.9-36.2
		c7.1-8.5,14.2-12.8,22.7-12.1c14.9,1.4,24.1,17,24.8,18.5c2.1,3.5,0.7,7.8-2.8,9.9s-7.8,0.7-9.9-2.8c-1.4-2.8-7.8-11.4-13.5-11.4
		c-3.5,0-7.1,2.1-10.6,7.1c-7.1,9.2-9.2,16.3-7.1,22c3.5,9.2,18.5,14.2,23.4,15.6c3.5,0.7,6.4,4.3,5.7,8.5
		C187,501.8,184.2,503.9,181.3,503.9z"/>
</g>
</svg>
