<?xml version="1.0" encoding="utf-8"?>
<!-- Generator: Adobe Illustrator 17.1.0, SVG Export Plug-In . SVG Version: 6.00 Build 0)  -->
<!DOCTYPE svg PUBLIC "-//W3C//DTD SVG 1.1//EN" "http://www.w3.org/Graphics/SVG/1.1/DTD/svg11.dtd">
<svg version="1.1" id="Layer_1" xmlns:sketch="http://www.bohemiancoding.com/sketch/ns"
	 xmlns="http://www.w3.org/2000/svg" xmlns:xlink="http://www.w3.org/1999/xlink" x="0px" y="0px" viewBox="0 116.1 612 559.5"
	 enable-background="new 0 116.1 612 559.5" xml:space="preserve">
<title>code</title>
<desc>Created with Sketch.</desc>
<path fill="#FFFFFF" d="M564.9,195.4H46c-9.4,0-16.6,7.2-16.6,16.6v375.4c0,9.4,7.2,16.6,16.6,16.6h518.9c9.4,0,16.6-7.2,16.6-16.6
	V211.9C581.5,202.5,574.3,195.4,564.9,195.4z M548.9,205.3c6.6,0,11.6,5.5,11.6,11.6c0,6.6-5,11.6-11.6,11.6s-11.6-5-11.6-11.6
	S542.3,205.3,548.9,205.3z M516.9,205.3c6.6,0,11.6,5.5,11.6,11.6c0,6.6-5.5,11.6-11.6,11.6c-6,0-11.6-5-11.6-11.6
	S510.3,205.3,516.9,205.3z M484.9,205.3c6.6,0,11.6,5.5,11.6,11.6c0,6.6-5.5,11.6-11.6,11.6c-6,0-11.6-5-11.6-11.6
	S478.3,205.3,484.9,205.3z M560.5,575.1c0,6-5,11-11,11H56c-6,0-11-5-11-11V250c0-6,5-11,11-11h493.5c6,0,11,5,11,11V575.1z"/>
<path fill="#FFFFFF" d="M165.3,401.2c-2.8,1.6-2.8,3.9,0,5.5l61.8,34.2c3.3,1.6,5.5,3.3,6.6,5c1.1,1.6,1.6,3.3,1.6,5.5
	c0,2.8-1.1,5.5-3.3,7.2c-2.2,2.2-4.4,3.3-7.2,3.3c-1.6,0-4.4-1.1-8.3-2.8l-75-41.4c-13.3-7.2-13.3-19.3,0-26.5l75-41.4
	c3.9-1.6,6-2.8,8.3-2.8c2.8,0,5.5,1.1,7.2,3.3c2.2,2.2,3.3,4.4,3.3,7.2c0,2.2-0.5,3.9-1.6,5.5s-3.3,3.3-6.6,5L165.3,401.2z"/>
<path fill="#FFFFFF" d="M348,335.6l-65.7,141.3c-1.6,3.3-3.3,6-4.4,6.6c-1.6,1.6-3.9,2.2-6,2.2c-2.8,0-5-1.1-7.2-2.8
	c-2.2-2.2-3.3-4.4-3.3-6.6c0-1.6,0.5-4.4,2.2-7.8l66.2-141.3c1.6-3.3,3.3-6,4.4-6.6c1.6-1.6,3.9-2.2,6-2.2c2.8,0,5,1.1,7.2,2.8
	c2.2,1.6,2.8,4.4,2.8,6.6C350.2,329.5,349.1,331.7,348,335.6L348,335.6z"/>
<path fill="#FFFFFF" d="M450.1,404l-66.8-37c-3.3-1.6-5.5-3.3-6.6-5c-1.1-1.6-1.6-3.3-1.6-5.5c0-2.8,1.1-5.5,3.3-7.2
	c2.2-2.2,4.4-3.3,7.2-3.3c1.6,0,4.4,1.1,8.3,2.8l75,41.4c13.3,7.2,13.3,19.3,0,26.5l-75,41.4c-3.9,2.2-6,2.8-8.3,2.8
	c-2.8,0-5.5-1.1-7.2-3.3c-2.2-2.2-3.3-4.4-3.3-7.8c0-2.2,0.5-3.9,1.6-5.5s3.3-3.3,6.6-5L450.1,404z"/>
</svg>
