<?xml version="1.0" encoding="utf-8"?>
<!-- Generator: Adobe Illustrator 19.1.0, SVG Export Plug-In . SVG Version: 6.00 Build 0)  -->
<svg version="1.1" id="Layer_1" xmlns:sketch="http://www.bohemiancoding.com/sketch/ns"
	 xmlns="http://www.w3.org/2000/svg" xmlns:xlink="http://www.w3.org/1999/xlink" x="0px" y="0px" viewBox="-173 0.5 612 559.5"
	 style="enable-background:new -173 0.5 612 559.5;" xml:space="preserve">
<style type="text/css">
	.st0{fill:#FFFFFF;}
</style>
<title>code</title>
<desc>Created with Sketch.</desc>
<path class="st0" d="M398.2,68.4h-518.9c-9.4,0-16.6,7.2-16.6,16.6v375.4c0,9.4,7.2,16.6,16.6,16.6h518.9c9.4,0,16.6-7.2,16.6-16.6
	V84.9C414.8,75.5,407.6,68.4,398.2,68.4z M382.2,78.3c6.6,0,11.6,5.5,11.6,11.6c0,6.6-5,11.6-11.6,11.6s-11.6-5-11.6-11.6
	S375.6,78.3,382.2,78.3z M350.2,78.3c6.6,0,11.6,5.5,11.6,11.6c0,6.6-5.5,11.6-11.6,11.6c-6,0-11.6-5-11.6-11.6
	S343.6,78.3,350.2,78.3z M318.2,78.3c6.6,0,11.6,5.5,11.6,11.6c0,6.6-5.5,11.6-11.6,11.6c-6,0-11.6-5-11.6-11.6
	S311.6,78.3,318.2,78.3z M393.8,448.1c0,6-5,11-11,11h-493.5c-6,0-11-5-11-11V123c0-6,5-11,11-11h493.5c6,0,11,5,11,11V448.1z"/>
<path class="st0" d="M-1.4,274.2c-2.8,1.6-2.8,3.9,0,5.5l61.8,34.2c3.3,1.6,5.5,3.3,6.6,5c1.1,1.6,1.6,3.3,1.6,5.5
	c0,2.8-1.1,5.5-3.3,7.2c-2.2,2.2-4.4,3.3-7.2,3.3c-1.6,0-4.4-1.1-8.3-2.8l-75-41.4c-13.3-7.2-13.3-19.3,0-26.5l75-41.4
	c3.9-1.6,6-2.8,8.3-2.8c2.8,0,5.5,1.1,7.2,3.3c2.2,2.2,3.3,4.4,3.3,7.2c0,2.2-0.5,3.9-1.6,5.5s-3.3,3.3-6.6,5L-1.4,274.2z"/>
<path class="st0" d="M181.3,208.6l-65.7,141.3c-1.6,3.3-3.3,6-4.4,6.6c-1.6,1.6-3.9,2.2-6,2.2c-2.8,0-5-1.1-7.2-2.8
	c-2.2-2.2-3.3-4.4-3.3-6.6c0-1.6,0.5-4.4,2.2-7.8l66.2-141.3c1.6-3.3,3.3-6,4.4-6.6c1.6-1.6,3.9-2.2,6-2.2c2.8,0,5,1.1,7.2,2.8
	c2.2,1.6,2.8,4.4,2.8,6.6C183.5,202.5,182.4,204.7,181.3,208.6L181.3,208.6z"/>
<path class="st0" d="M283.4,277l-66.8-37c-3.3-1.6-5.5-3.3-6.6-5c-1.1-1.6-1.6-3.3-1.6-5.5c0-2.8,1.1-5.5,3.3-7.2
	c2.2-2.2,4.4-3.3,7.2-3.3c1.6,0,4.4,1.1,8.3,2.8l75,41.4c13.3,7.2,13.3,19.3,0,26.5l-75,41.4c-3.9,2.2-6,2.8-8.3,2.8
	c-2.8,0-5.5-1.1-7.2-3.3c-2.2-2.2-3.3-4.4-3.3-7.8c0-2.2,0.5-3.9,1.6-5.5s3.3-3.3,6.6-5L283.4,277z"/>
</svg>
