<?xml version="1.0" encoding="utf-8"?>
<!-- Generator: Adobe Illustrator 19.1.0, SVG Export Plug-In . SVG Version: 6.00 Build 0)  -->
<svg version="1.1" id="Layer_1" xmlns="http://www.w3.org/2000/svg" xmlns:xlink="http://www.w3.org/1999/xlink" x="0px" y="0px"
	 viewBox="-429 218 100 125" style="enable-background:new -429 218 100 125;" xml:space="preserve">
<path d="M-420.5,243.1c1.2,0,2.2-0.3,3.2-0.9c3.3,2.3,14.5,10.3,16.3,11.4c1.6,1,3,1.9,5.1,2c1,0,3.2,0.1,6.6,0.1
	c0.7,1.4,2.2,2.4,3.9,2.4c2.4,0,4.4-2,4.4-4.4c0-2.4-2-4.4-4.4-4.4c-2.1,0-3.9,1.5-4.3,3.5c-3.1,0-5.2,0-6.1-0.1
	c-1.3,0-2.1-0.5-3.6-1.5c-1.6-1-12.2-8.6-15.8-11.1c0.4-0.8,0.7-1.8,0.7-2.8c0-3.3-2.7-5.9-5.9-5.9c-3.2,0-5.9,2.7-5.9,5.9
	S-423.8,243.1-420.5,243.1z M-420.5,234.2c1.6,0,2.9,1.3,2.9,2.9c0,1.6-1.3,2.9-2.9,2.9s-2.9-1.3-2.9-2.9
	C-423.4,235.5-422.1,234.2-420.5,234.2z"/>
<path d="M-414.6,270.1h8.8c0.6,1.7,2.2,2.9,4.1,2.9c2.4,0,4.4-2,4.4-4.4s-2-4.4-4.4-4.4c-1.9,0-3.5,1.2-4.1,2.9h-8.8
	c-0.7-2.5-3-4.4-5.7-4.4c-3.3,0-5.9,2.7-5.9,5.9c0,3.2,2.7,5.9,5.9,5.9C-417.5,274.6-415.2,272.7-414.6,270.1z M-423.2,268.6
	c0-1.6,1.3-2.9,2.9-2.9c1.6,0,2.9,1.3,2.9,2.9s-1.3,2.9-2.9,2.9C-421.9,271.6-423.2,270.2-423.2,268.6z"/>
<path d="M-413.3,285.9c2.7,0,5.1-1.9,5.7-4.4h1.8c0.6,1.7,2.2,2.9,4.1,2.9c2.4,0,4.4-2,4.4-4.4s-2-4.4-4.4-4.4
	c-1.9,0-3.5,1.2-4.1,2.9h-1.8c-0.7-2.5-3-4.4-5.7-4.4c-3.3,0-5.9,2.7-5.9,5.9S-416.6,285.9-413.3,285.9z M-413.3,277
	c1.6,0,2.9,1.3,2.9,2.9s-1.3,2.9-2.9,2.9c-1.6,0-2.9-1.3-2.9-2.9S-414.9,277-413.3,277z"/>
<path d="M-419,308.9v-10.3c0-4.7,1.6-5.7,4.3-5.7c3.3,0,7,0,8.6,0.1c0.6,1.7,2.2,2.9,4.2,2.9c2.4,0,4.4-2,4.4-4.4s-2-4.4-4.4-4.4
	c-1.9,0-3.5,1.2-4.1,2.9c-1.7,0-5.4-0.1-8.6-0.1c-7.4,0-7.4,6.5-7.4,8.7v10.2c-2.6,0.6-4.6,3-4.6,5.8c0,3.3,2.7,5.9,5.9,5.9
	c3.2,0,5.9-2.7,5.9-5.9C-414.7,311.9-416.5,309.6-419,308.9z M-420.7,317.5c-1.6,0-2.9-1.3-2.9-2.9s1.3-2.9,2.9-2.9
	c1.6,0,2.9,1.3,2.9,2.9C-417.7,316.2-419.1,317.5-420.7,317.5z"/>
<path d="M-337.4,308.8v-10.2c0-2.1,0-8.7-7.3-8.7c-3.3,0-7,0-8.6,0.1c-0.6-1.7-2.2-2.9-4.1-2.9c-2.4,0-4.4,2-4.4,4.4s2,4.4,4.4,4.4
	c1.9,0,3.5-1.2,4.2-2.9c1.7,0,5.4-0.1,8.6-0.1c2.7,0,4.3,0.9,4.3,5.7v10.3c-2.5,0.7-4.3,3-4.3,5.7c0,3.3,2.7,5.9,5.9,5.9
	s5.9-2.7,5.9-5.9C-332.8,311.8-334.8,309.4-337.4,308.8z M-338.7,317.5c-1.6,0-2.9-1.3-2.9-2.9s1.3-2.9,2.9-2.9
	c1.6,0,2.9,1.3,2.9,2.9S-337.1,317.5-338.7,317.5z"/>
<path d="M-357,273c1.7,0,3.2-1,3.9-2.4c1.7,0,4.7,0,7.3,0c6.8,0,6.8-6,6.8-8v-22.1c2.4-0.6,4.2-2.8,4.2-5.4c0-3-2.5-5.5-5.5-5.5
	s-5.5,2.5-5.5,5.5c0,2.5,1.6,4.6,3.9,5.3v22.2c0,4.2-1.3,5-3.8,5s-5.2,0-6.9,0c-0.4-2-2.2-3.5-4.3-3.5c-2.4,0-4.4,2-4.4,4.4
	C-361.5,271-359.5,273-357,273z M-342.9,235.2c0-1.4,1.1-2.5,2.5-2.5s2.5,1.1,2.5,2.5c0,1.4-1.1,2.5-2.5,2.5
	C-341.7,237.7-342.9,236.6-342.9,235.2z"/>
<path d="M-357.3,284.7c1.9,0,3.5-1.2,4.1-2.9h10.8c0.7,2.5,3,4.4,5.7,4.4c3.3,0,5.9-2.7,5.9-5.9c0-3.3-2.7-5.9-5.9-5.9
	c-2.7,0-5.1,1.9-5.7,4.4h-10.7c-0.6-1.7-2.2-2.9-4.1-2.9c-2.4,0-4.4,2-4.4,4.4C-361.6,282.7-359.7,284.7-357.3,284.7z M-336.6,277.4
	c1.6,0,2.9,1.3,2.9,2.9c0,1.6-1.3,2.9-2.9,2.9s-2.9-1.3-2.9-2.9C-339.6,278.7-338.2,277.4-336.6,277.4z"/>
<path d="M-387.6,261.2c-3.5,0-6.3,2.8-6.3,6.3v25.6c0,3.5,2.8,6.3,6.3,6.3h16.2c3.5,0,6.3-2.8,6.3-6.3v-25.6c0-3.5-2.8-6.3-6.3-6.3
	H-387.6z"/>
<path d="M-393.9,245.3c2.7,0,5-1.8,5.7-4.3h10c1.1,0,2.1,0,2.5,0.4c0.2,0.2,0.5,0.7,0.5,2c0,1.8,0,4.2-0.1,6.1
	c-1.6,0.7-2.8,2.2-2.8,4.1c0,2.4,2,4.4,4.4,4.4c2.4,0,4.4-2,4.4-4.4c0-2-1.3-3.6-3.1-4.2c0-1.9,0.1-4.2,0.1-6c0-1.9-0.4-3.3-1.3-4.1
	c-1.3-1.3-3-1.2-4.6-1.2h-9.9c-0.6-2.6-3-4.5-5.8-4.5c-3.3,0-5.9,2.7-5.9,5.9C-399.8,242.6-397.2,245.3-393.9,245.3z M-393.9,236.4
	c1.6,0,2.9,1.3,2.9,2.9c0,1.6-1.3,2.9-2.9,2.9s-2.9-1.3-2.9-2.9C-396.8,237.8-395.5,236.4-393.9,236.4z"/>
<path d="M-385.4,302.7c-1.8,0-3.4,1.1-4,2.6h-11.1c-2.1,0-6.5,0-6.5,5.9c0,0.7,0,1.4,0,2c-2.6,0.6-4.5,3-4.5,5.7
	c0,3.3,2.7,5.9,5.9,5.9c3.2,0,5.9-2.7,5.9-5.9c0-2.7-1.8-5-4.3-5.7c0-0.6-0.1-1.3-0.1-2c0-2.7,0.9-2.9,3.5-2.9h10.9
	c0.5,1.9,2.2,3.2,4.2,3.2c2.4,0,4.4-2,4.4-4.4C-381,304.7-383,302.7-385.4,302.7z M-402.7,319c0,1.6-1.3,2.9-2.9,2.9
	s-2.9-1.3-2.9-2.9s1.3-2.9,2.9-2.9S-402.7,317.3-402.7,319z"/>
<path d="M-357,313.2c0-0.6,0-1.3,0-2c0-5.9-4.4-5.9-6.5-5.9h-6.1c-0.7-1.6-2.2-2.6-4-2.6c-2.4,0-4.4,2-4.4,4.4s2,4.4,4.4,4.4
	c2,0,3.7-1.4,4.2-3.2h5.9c2.6,0,3.5,0.2,3.5,2.9c0,0.7,0,1.4-0.1,2c-2.5,0.7-4.3,3-4.3,5.7c0,3.3,2.7,5.9,5.9,5.9
	c3.3,0,5.9-2.7,5.9-5.9C-352.5,316.2-354.4,313.8-357,313.2z M-358.4,321.9c-1.6,0-2.9-1.3-2.9-2.9s1.3-3,2.9-3s2.9,1.3,2.9,2.9
	S-356.8,321.9-358.4,321.9z"/>
</svg>
