<?xml version="1.0" encoding="utf-8"?>
<!-- Generator: Adobe Illustrator 17.1.0, SVG Export Plug-In . SVG Version: 6.00 Build 0)  -->
<!DOCTYPE svg PUBLIC "-//W3C//DTD SVG 1.1//EN" "http://www.w3.org/Graphics/SVG/1.1/DTD/svg11.dtd">
<svg version="1.1"
	 id="Layer_1" xmlns:cc="http://creativecommons.org/ns#" xmlns:rdf="http://www.w3.org/1999/02/22-rdf-syntax-ns#" xmlns:dc="http://purl.org/dc/elements/1.1/"
	 xmlns="http://www.w3.org/2000/svg" xmlns:xlink="http://www.w3.org/1999/xlink" x="0px" y="0px" viewBox="0 194.1 612 597.9"
	 enable-background="new 0 194.1 612 597.9" xml:space="preserve">
<path fill="#FFFFFF" d="M176.1,276c-15.3,0-27.5,0.6-36.7,2.4s-16.5,4.9-23.3,9.2c-8.6,5.5-14.1,12.9-17.7,22
	c-3.7,9.2-4.9,25.7-4.9,49v55.7c0,23.3-4.3,39.2-12.2,49c-8.6,9.2-22.6,14.1-42.8,14.1c-1.2,0-2.4,0-4.9,0s-4.3,0-5.5,0v28.8
	c1.2,0,3.1,0,5.5,0s3.7-0.6,4.9-0.6c20.2,0,34.9,4.9,42.8,14.1c8.6,9.2,12.2,25.1,12.2,48.3v55.7c0,22.6,1.8,39.2,4.9,48.3
	c3.7,9.8,9.2,17.1,17.7,22.6c6.1,4.3,14.1,7.3,23.3,9.2c9.2,1.8,21.4,2.4,36.1,2.4h8V678h-8.6c-19,0-32.4-3.7-38.6-11
	c-6.7-7.3-9.8-22-9.8-44.1v-55.1c0-25.1-3.1-42.8-9.8-53.9c-6.7-10.4-18.4-17.7-35.5-22.6c17.1-4.9,28.8-12.2,35.5-23.3
	c6.7-10.4,9.8-28.2,9.8-53.9V359c0-22.6,3.7-37.9,9.8-44.7c6.1-6.7,19-11,37.3-11c1.2,0,3.1,0,4.9,0.6c2.4,0,3.7,0,4.9,0v-28.8
	L176.1,276L176.1,276z M423.3,276v28.2h9.2c19,0,31.8,3.7,37.9,11c6.7,7.3,9.8,22,9.8,44.7V415c0,25.1,3.1,42.8,9.8,53.9
	c6.7,10.4,18.4,18.4,35.5,23.3c-17.1,4.3-28.8,12.2-35.5,22.6c-6.7,10.4-9.8,28.2-9.8,53.9v54.5c0,22.6-3.1,37.9-9.8,45.3
	c-6.7,7.3-19,11-37.3,11c-1.2,0-2.4,0-4.9,0s-4.3,0-5.5,0v28h9.2c15.3,0,27.5-0.6,36.7-2.4c8.6-1.8,16.5-4.9,22-8.6
	c8-5.5,14.1-12.9,17.1-22.6c3.1-9.8,4.9-26.3,4.9-49.6v-55.1c0-23.3,4.3-39.2,12.9-48.3s22.6-14.1,43.5-14.1c1.2,0,3.1,0,4.9,0.6
	c2.4,0,3.7,0,4.9,0v-28.8c-1.2,0-3.1,0-4.9,0c-2.4,0-4.3,0-4.9,0c-20.2,0-34.9-4.9-43.5-14.1s-12.9-25.7-12.9-48.3v-55.7
	c0-23.3-1.8-39.2-4.9-49c-3.1-9.8-9.2-17.1-17.1-22c-6.1-4.3-14.1-7.3-23.3-9.2c-9.2-1.8-21.4-3.1-36.1-3.1
	C431.3,276,423.3,276,423.3,276z M175.5,412.5c-11,0-19.6,9.2-19.6,19.6c0,11,9.2,19.6,19.6,19.6c1.2,0,3.1,0,4.3-0.6l61.8,78.3
	c-1.2,2.4-1.8,5.5-1.8,8c0,11,9.2,19.6,19.6,19.6c11,0,19.6-8.6,19.6-19.6c0-3.1-0.6-5.5-1.8-8c0,0,0,0,0.6-0.6
	c1.2-1.2,4.3-2.4,7.3-4.3c6.1-3.7,14.1-8,22.6-12.9c15.3-8.6,26.9-14.7,30-16.5c3.7,3.7,8.6,5.5,14.1,5.5c4.9,0,9.2-1.8,12.2-4.9
	c1.8,1.2,3.1,3.1,5.5,4.9c6.1,4.9,14.1,11,22,17.1c15.9,12.2,31.8,23.9,32.4,24.5c-0.6,1.8-1.2,3.7-1.2,6.1c0,11,9.2,19.6,19.6,19.6
	c11,0,19.6-9.2,19.6-19.6c0-11-9.2-19.6-19.6-19.6c-4.3,0-8,1.2-11.6,3.7c-0.6-0.6-16.5-12.2-31.8-23.9c-8-6.1-15.9-12.9-22-17.1
	c-3.1-2.4-5.5-4.3-6.7-5.5l0,0c0.6-1.2,0.6-3.1,0.6-4.3c0-11-9.2-19.6-19.6-19.6c-11,0-19.6,8.6-19.6,19.6c0,1.2,0,1.8,0,3.1
	c-3.1,1.8-15.3,8.6-30.6,16.5c-8.6,4.9-16.5,9.8-23.3,12.9c-3.1,1.8-5.5,3.1-7.3,4.3c-0.6,0.6-1.2,1.2-1.8,1.2l0,0
	c-3.1-1.8-6.1-2.4-9.8-2.4c-3.1,0-6.1,1.2-9.2,2.4l-60-75.3c3.1-3.7,4.9-8,4.9-12.9C195.1,421.1,185.9,412.5,175.5,412.5
	L175.5,412.5z M175.5,422.9c4.9,0,9.2,4.3,9.2,9.2s-4.3,9.2-9.2,9.2s-9.2-4.3-9.2-9.2S170,422.9,175.5,422.9z M351.7,473.1
	c4.9,0,9.2,4.3,9.2,9.2s-4.3,9.2-9.2,9.2c-4.9,0-9.2-4.3-9.2-9.2C342.6,476.7,346.8,473.1,351.7,473.1z M370.7,487.1L370.7,487.1
	L370.7,487.1L370.7,487.1z M259.3,528.2c4.9,0,9.2,4.3,9.2,9.2s-4.3,9.2-9.2,9.2c-4.9,0-9.2-4.3-9.2-9.2
	C250.1,532.4,253.8,528.2,259.3,528.2z M277.1,529.4C277.1,529.4,277.7,529.4,277.1,529.4C277.1,530,277.1,529.4,277.1,529.4
	L277.1,529.4z M442.9,540.4c4.9,0,9.2,4.3,9.2,9.2s-4.3,9.2-9.2,9.2s-9.2-4.3-9.2-9.2C433.7,544.1,438,540.4,442.9,540.4z"/>
</svg>
