<?xml version="1.0" encoding="utf-8"?>
<!-- Generator: Adobe Illustrator 17.1.0, SVG Export Plug-In . SVG Version: 6.00 Build 0)  -->
<!DOCTYPE svg PUBLIC "-//W3C//DTD SVG 1.1//EN" "http://www.w3.org/Graphics/SVG/1.1/DTD/svg11.dtd">
<svg version="1.1" id="Layer_1" xmlns="http://www.w3.org/2000/svg" xmlns:xlink="http://www.w3.org/1999/xlink" x="0px" y="0px"
	 viewBox="0 122.1 612 526.5" enable-background="new 0 122.1 612 526.5" xml:space="preserve">
<path fill="#FFFFFF" d="M557.3,286.2c-21.4,0-41.6,0.6-58.1,1.2c-4.3-5.5-9.8-9.2-16.5-9.2c-7.3,0-14.1,4.9-18.4,12.2
	c-0.6,0-1.8,0-2.4,0.6c-15.9-3.1-36.1-4.9-60.6-4.9c-61.2,0-75.3,28.2-14.1,28.2c28.2,0,53.2-1.2,72.8-2.4c1.8,4.9,8,8,14.7,9.2v9.8
	c-8.6,1.8-15.3,5.5-15.3,12.2c0,1.8,0,4.3,0.6,6.1H342.5c-9.8-8-22.6-12.9-36.1-12.9s-26.3,4.9-36.1,12.9H163.2
	c0-1.8,0.6-3.7,0.6-6.1c0-6.7-6.7-11-15.3-12.2v-9.8c7.3-1.2,13.5-4.9,15.3-9.8c13.5,1.8,30,3.1,48.3,3.1
	c61.2,0,75.3-28.2,14.1-28.2c-25.7,0-49.6,0.6-68.5,1.8c-4.3-6.1-10.4-9.8-16.5-9.8c-7.3,0-13.5,4.3-17.7,11.6
	c-14.7-2.4-32.4-3.7-53.2-3.7c-61.2,0-75.3,28.2-14.1,28.2c23.3,0,44.7-0.6,63-1.8c1.8,4.9,8,7.3,14.7,8.6v9.8
	c-8.6,1.8-15.3,5.5-15.3,12.2c0,17.7,10.4,31.8,23.3,31.8c4.9,0,9.2-1.8,12.9-5.5h44.7L134.6,504c-3.1,6.1-0.6,14.1,6.1,16.5
	c6.1,3.1,14.1,0.6,16.5-6.1l67.3-140.1c0.6-1.8,1.2-3.7,1.2-5.5h30c-2.4,5.5-4.3,12.2-4.9,19h-6.7c-12.2,0-22.6,10.4-22.6,22.6v67.9
	c0,12.2,10.4,22.6,22.6,22.6H271c8.6,11.6,22,19.6,37.3,19.6s29.4-8,37.3-19.6h26.9c12.2,0,22.6-10.4,22.6-22.6v-66.7
	c0-12.2-10.4-22.6-22.6-22.6h-6.7c-0.6-6.7-2.4-12.9-4.9-19h30c0,1.8,0.6,3.7,1.2,5.5l67.3,140.1c3.1,6.1,10.4,9.2,16.5,6.1
	s9.2-10.4,6.1-16.5l-64.9-134.6h55.1c3.7,3.1,8,5.5,12.9,5.5c12.9,0,23.3-14.1,23.3-31.8c0-6.7-6.7-11-15.3-12.2v-9.8
	c6.7-1.2,12.9-4.3,14.7-8.6c11.6,1.2,24.5,1.8,38.6,1.8C605,314.3,618.5,286.2,557.3,286.2z M258.7,418.4c-9.2,0-17.1-4.3-17.1-9.2
	s8-9.2,17.1-9.2c9.2,0,17.1,4.3,17.1,9.2C275.8,414.1,267.8,418.4,258.7,418.4z M306.4,489.4c-17.7,0-31.8-14.1-31.8-31.8
	s14.1-31.8,31.8-31.8c17.7,0,31.8,14.1,31.8,31.8C338.2,474.7,324.1,489.4,306.4,489.4z"/>
</svg>
