<?xml version="1.0" encoding="utf-8"?>
<!-- Generator: Adobe Illustrator 19.1.0, SVG Export Plug-In . SVG Version: 6.00 Build 0)  -->
<svg version="1.1" id="Layer_1" xmlns="http://www.w3.org/2000/svg" xmlns:xlink="http://www.w3.org/1999/xlink" x="0px" y="0px"
	 viewBox="-429 218 100 125" style="enable-background:new -429 218 100 125;" xml:space="preserve">
<path d="M-420.8,246.4c1.2,0,2.2-0.3,3.2-0.9c3.3,2.3,14.5,10.3,16.3,11.4c1.6,1,3,1.9,5.1,2c1,0,3.2,0.1,6.6,0.1
	c0.7,1.4,2.2,2.4,3.9,2.4c2.4,0,4.4-2,4.4-4.4s-2-4.4-4.4-4.4c-2.1,0-3.9,1.5-4.3,3.5c-3.1,0-5.2,0-6.1-0.1c-1.3,0-2.1-0.5-3.6-1.5
	c-1.6-1-12.2-8.6-15.8-11.1c0.4-0.8,0.7-1.8,0.7-2.8c0-3.3-2.7-5.9-5.9-5.9c-3.2,0-5.9,2.7-5.9,5.9S-424.1,246.4-420.8,246.4z
	 M-420.8,237.5c1.6,0,2.9,1.3,2.9,2.9c0,1.6-1.3,2.9-2.9,2.9s-2.9-1.3-2.9-2.9S-422.4,237.5-420.8,237.5z"/>
<path d="M-414.9,273.4h8.8c0.6,1.7,2.2,2.9,4.1,2.9c2.4,0,4.4-2,4.4-4.4s-2-4.4-4.4-4.4c-1.9,0-3.5,1.2-4.1,2.9h-8.8
	c-0.7-2.5-3-4.4-5.7-4.4c-3.3,0-5.9,2.7-5.9,5.9c0,3.2,2.7,5.9,5.9,5.9C-417.8,277.9-415.5,276-414.9,273.4z M-423.5,271.9
	c0-1.6,1.3-2.9,2.9-2.9s2.9,1.3,2.9,2.9s-1.3,2.9-2.9,2.9C-422.2,274.9-423.5,273.5-423.5,271.9z"/>
<path d="M-413.6,289.2c2.7,0,5.1-1.9,5.7-4.4h1.8c0.6,1.7,2.2,2.9,4.1,2.9c2.4,0,4.4-2,4.4-4.4s-2-4.4-4.4-4.4
	c-1.9,0-3.5,1.2-4.1,2.9h-1.8c-0.7-2.5-3-4.4-5.7-4.4c-3.3,0-5.9,2.7-5.9,5.9S-416.9,289.2-413.6,289.2z M-413.6,280.3
	c1.6,0,2.9,1.3,2.9,2.9s-1.3,2.9-2.9,2.9s-2.9-1.3-2.9-2.9S-415.2,280.3-413.6,280.3z"/>
<path d="M-419.3,312.2v-10.3c0-4.7,1.6-5.7,4.3-5.7c3.3,0,7,0,8.6,0.1c0.6,1.7,2.2,2.9,4.2,2.9c2.4,0,4.4-2,4.4-4.4s-2-4.4-4.4-4.4
	c-1.9,0-3.5,1.2-4.1,2.9c-1.7,0-5.4-0.1-8.6-0.1c-7.4,0-7.4,6.5-7.4,8.7v10.2c-2.6,0.6-4.6,3-4.6,5.8c0,3.3,2.7,5.9,5.9,5.9
	c3.2,0,5.9-2.7,5.9-5.9C-415,315.2-416.8,312.9-419.3,312.2z M-421,320.8c-1.6,0-2.9-1.3-2.9-2.9s1.3-2.9,2.9-2.9s2.9,1.3,2.9,2.9
	C-418,319.5-419.4,320.8-421,320.8z"/>
<path d="M-337.7,312.1v-10.2c0-2.1,0-8.7-7.3-8.7c-3.3,0-7,0-8.6,0.1c-0.6-1.7-2.2-2.9-4.1-2.9c-2.4,0-4.4,2-4.4,4.4s2,4.4,4.4,4.4
	c1.9,0,3.5-1.2,4.2-2.9c1.7,0,5.4-0.1,8.6-0.1c2.7,0,4.3,0.9,4.3,5.7v10.3c-2.5,0.7-4.3,3-4.3,5.7c0,3.3,2.7,5.9,5.9,5.9
	s5.9-2.7,5.9-5.9C-333.1,315.1-335.1,312.7-337.7,312.1z M-339,320.8c-1.6,0-2.9-1.3-2.9-2.9s1.3-2.9,2.9-2.9s2.9,1.3,2.9,2.9
	S-337.4,320.8-339,320.8z"/>
<path d="M-357.3,276.3c1.7,0,3.2-1,3.9-2.4c1.7,0,4.7,0,7.3,0c6.8,0,6.8-6,6.8-8v-22.1c2.4-0.6,4.2-2.8,4.2-5.4c0-3-2.5-5.5-5.5-5.5
	s-5.5,2.5-5.5,5.5c0,2.5,1.6,4.6,3.9,5.3v22.2c0,4.2-1.3,5-3.8,5s-5.2,0-6.9,0c-0.4-2-2.2-3.5-4.3-3.5c-2.4,0-4.4,2-4.4,4.4
	C-361.8,274.3-359.8,276.3-357.3,276.3z M-343.2,238.5c0-1.4,1.1-2.5,2.5-2.5s2.5,1.1,2.5,2.5s-1.1,2.5-2.5,2.5
	C-342,241-343.2,239.9-343.2,238.5z"/>
<path d="M-357.6,288c1.9,0,3.5-1.2,4.1-2.9h10.8c0.7,2.5,3,4.4,5.7,4.4c3.3,0,5.9-2.7,5.9-5.9c0-3.3-2.7-5.9-5.9-5.9
	c-2.7,0-5.1,1.9-5.7,4.4h-10.7c-0.6-1.7-2.2-2.9-4.1-2.9c-2.4,0-4.4,2-4.4,4.4S-360,288-357.6,288z M-336.9,280.7
	c1.6,0,2.9,1.3,2.9,2.9s-1.3,2.9-2.9,2.9s-2.9-1.3-2.9-2.9C-339.9,282-338.5,280.7-336.9,280.7z"/>
<path d="M-387.9,264.5c-3.5,0-6.3,2.8-6.3,6.3v25.6c0,3.5,2.8,6.3,6.3,6.3h16.2c3.5,0,6.3-2.8,6.3-6.3v-25.6c0-3.5-2.8-6.3-6.3-6.3
	H-387.9z"/>
<path d="M-394.2,248.6c2.7,0,5-1.8,5.7-4.3h10c1.1,0,2.1,0,2.5,0.4c0.2,0.2,0.5,0.7,0.5,2c0,1.8,0,4.2-0.1,6.1
	c-1.6,0.7-2.8,2.2-2.8,4.1c0,2.4,2,4.4,4.4,4.4s4.4-2,4.4-4.4c0-2-1.3-3.6-3.1-4.2c0-1.9,0.1-4.2,0.1-6c0-1.9-0.4-3.3-1.3-4.1
	c-1.3-1.3-3-1.2-4.6-1.2h-9.9c-0.6-2.6-3-4.5-5.8-4.5c-3.3,0-5.9,2.7-5.9,5.9C-400.1,245.9-397.5,248.6-394.2,248.6z M-394.2,239.7
	c1.6,0,2.9,1.3,2.9,2.9c0,1.6-1.3,2.9-2.9,2.9s-2.9-1.3-2.9-2.9C-397.1,241.1-395.8,239.7-394.2,239.7z"/>
<path d="M-385.7,306c-1.8,0-3.4,1.1-4,2.6h-11.1c-2.1,0-6.5,0-6.5,5.9c0,0.7,0,1.4,0,2c-2.6,0.6-4.5,3-4.5,5.7
	c0,3.3,2.7,5.9,5.9,5.9c3.2,0,5.9-2.7,5.9-5.9c0-2.7-1.8-5-4.3-5.7c0-0.6-0.1-1.3-0.1-2c0-2.7,0.9-2.9,3.5-2.9h10.9
	c0.5,1.9,2.2,3.2,4.2,3.2c2.4,0,4.4-2,4.4-4.4C-381.3,308-383.3,306-385.7,306z M-403,322.3c0,1.6-1.3,2.9-2.9,2.9s-2.9-1.3-2.9-2.9
	s1.3-2.9,2.9-2.9S-403,320.6-403,322.3z"/>
<path d="M-357.3,316.5c0-0.6,0-1.3,0-2c0-5.9-4.4-5.9-6.5-5.9h-6.1c-0.7-1.6-2.2-2.6-4-2.6c-2.4,0-4.4,2-4.4,4.4s2,4.4,4.4,4.4
	c2,0,3.7-1.4,4.2-3.2h5.9c2.6,0,3.5,0.2,3.5,2.9c0,0.7,0,1.4-0.1,2c-2.5,0.7-4.3,3-4.3,5.7c0,3.3,2.7,5.9,5.9,5.9
	c3.3,0,5.9-2.7,5.9-5.9C-352.8,319.5-354.7,317.1-357.3,316.5z M-358.7,325.2c-1.6,0-2.9-1.3-2.9-2.9s1.3-3,2.9-3s2.9,1.3,2.9,2.9
	S-357.1,325.2-358.7,325.2z"/>
</svg>
