<?xml version="1.0" encoding="utf-8"?>
<!-- Generator: Adobe Illustrator 19.1.0, SVG Export Plug-In . SVG Version: 6.00 Build 0)  -->
<svg version="1.1" id="Layer_1" xmlns="http://www.w3.org/2000/svg" xmlns:xlink="http://www.w3.org/1999/xlink" x="0px" y="0px"
	 viewBox="-422 256 86.2 49.2" style="enable-background:new -422 256 86.2 49.2;" xml:space="preserve">
<g>
	<path d="M-400.4,290c-0.2,0-0.4,0-0.5-0.1l-19.3-11.7c-0.5-0.3-0.6-0.9-0.3-1.4l10.6-18c0.3-0.5,0.9-0.6,1.3-0.4
		c4.2,2.3,10.4,5.7,11.9,6.5c0.3-0.1,0.6-0.3,1-0.4c2.4-1.1,6.9-3.1,10.3-3c0.6,0,1,0.5,1,1s-0.5,1-1,1c-2.9-0.1-7.3,1.9-9.4,2.8
		c-1.5,0.7-1.8,0.8-2.2,0.6c-0.1,0-0.4-0.1-11.6-6.3l-9.6,16.4l18.4,11.1c0.5,0.3,0.6,0.9,0.3,1.4C-399.8,289.8-400.1,290-400.4,290
		z"/>
	<path d="M-356.6,287.9c-0.2,0-0.5-0.1-0.7-0.3l-9.5-9c-7.8-2-10-6.8-10.8-8.7c-0.6,0.1-1.5,0.2-3,0.2c-0.7,0.5-2.5,1.9-5,3.2
		c-2.3,1.2-4.6,0.7-5.6-1c-0.6-1.1-0.7-2.4-0.1-3.5c4-7.8,8.7-9.4,11.9-9.4c1.9,0,3.1,0.6,3.2,0.6l12,5.3l17-8
		c0.2-0.1,0.5-0.1,0.8,0c0.3,0.1,0.5,0.3,0.6,0.5l8.3,18.7c0.2,0.5,0,1-0.4,1.3l-18.2,10C-356.3,287.9-356.4,287.9-356.6,287.9z
		 M-377.1,267.8c0.8,0,1.1,0.7,1.4,1.4c0.8,1.8,2.5,5.9,9.7,7.6c0.2,0,0.3,0.1,0.4,0.2l9.2,8.7l16.7-9.2l-7.5-16.9l-16.5,7.8
		c-0.3,0.1-0.6,0.1-0.8,0l-12.4-5.5c0,0-1-0.4-2.4-0.4c-2.7,0-6.6,1.4-10.1,8.3c-0.2,0.5-0.2,1.1,0.1,1.5c0.5,0.8,1.7,0.9,3,0.3
		c2.9-1.5,4.9-3.1,5-3.1c0.2-0.2,0.4-0.2,0.7-0.2h0.3c1.7,0,2.6-0.2,2.9-0.3C-377.6,267.8-377.4,267.8-377.1,267.8z"/>
	<path d="M-359.4,292.5c-0.5,0-1.1-0.1-1.5-0.4c-0.6-0.4-8.4-6.4-10-7.6c-0.4-0.3-0.5-1-0.2-1.4c0.3-0.4,1-0.5,1.4-0.2
		c3.7,2.9,9.4,7.2,9.8,7.5c0.3,0.2,1.4,0,2.1-0.7c0.6-0.7,0.6-1.5-0.2-2.6c-0.3-0.5-0.2-1.1,0.3-1.4s1.1-0.2,1.4,0.3
		c1.3,1.9,1.3,3.8,0,5.2C-357,292-358.3,292.5-359.4,292.5z"/>
	<path d="M-364.2,297.2c-0.7,0-1.3-0.2-1.8-0.5c-1.1-0.8-8.8-7.4-9.1-7.6c-0.4-0.4-0.5-1-0.1-1.4c0.4-0.4,1-0.5,1.4-0.1
		c2.7,2.3,8.1,6.9,9,7.5c0.2,0.1,0.9,0.3,1.6-0.2c1-0.6,1.3-1.9,1.1-3.8c-0.1-0.5,0.3-1.1,0.9-1.1c0.5-0.1,1.1,0.3,1.1,0.9
		c0.5,3.6-1.1,5.2-2.1,5.7C-362.8,297-363.5,297.2-364.2,297.2z"/>
	<path d="M-368.7,301.1c-0.3,0-0.5,0-0.8-0.1c-2.4-0.8-8.4-6.5-9.1-7.2c-0.4-0.4-0.4-1,0-1.4c0.4-0.4,1-0.4,1.4,0
		c2.4,2.4,6.9,6.3,8.3,6.7c0.3,0.1,1.1-0.1,1.7-0.8c0.6-0.6,0.6-1.4,0.2-2.4c-0.2-0.5,0-1.1,0.5-1.3c0.5-0.2,1.1,0,1.3,0.5
		c0.7,1.7,0.5,3.3-0.6,4.5C-366.4,300.6-367.6,301.1-368.7,301.1z"/>
	<path d="M-373.3,303.4c-2.5,0-6-2.4-7.1-3.2c-0.4-0.3-0.6-0.9-0.2-1.4c0.3-0.4,0.9-0.6,1.4-0.2c2.3,1.6,5.3,3.1,6.3,2.8
		c1.5-0.5,1.4-1.3,1.2-1.9c-0.2-0.5,0.1-1.1,0.6-1.3c0.5-0.2,1.1,0.1,1.3,0.6c0.7,2-0.2,3.6-2.4,4.5
		C-372.6,303.4-372.9,303.4-373.3,303.4z"/>
	<path d="M-382.4,303.8c-2.4,0-5-1.7-5-4.3v-0.8c-0.1-3-0.2-7.1,3.9-7.3c3.2-0.2,3.9,2.2,4.2,3.5c0.4,1.5,0.6,4.2,0,6.8
		C-379.7,303-380.9,303.8-382.4,303.8z M-383.3,293.4c-0.1,0-0.1,0-0.2,0c-1.9,0.1-2.1,1.8-2,5.3v0.8c0,1.4,1.8,2.3,3,2.3
		c0.4,0,1-0.1,1.1-0.6c0.6-2.5,0.3-4.8,0-5.7C-381.7,293.9-382.1,293.4-383.3,293.4z"/>
	<path d="M-386.9,302C-387,302-387,302-386.9,302c-2.4-0.2-4-1-4.9-2.4c-1.3-2.1-0.6-4.7-0.2-5.7c0.5-1.3,2.3-5.5,5.5-5.2
		s3.9,3.3,3.9,3.4c0.1,0.5-0.2,1.1-0.8,1.2c-0.5,0.1-1.1-0.2-1.2-0.8c0-0.2-0.5-1.7-2.1-1.9c-1.5-0.2-2.9,2.4-3.5,3.9
		c-0.2,0.6-0.9,2.6,0,3.9c0.5,0.8,1.6,1.3,3.3,1.5c0.6,0,1,0.5,0.9,1.1C-386,301.6-386.4,302-386.9,302z"/>
	<path d="M-392.8,299.3c-1,0-2.1-0.3-3.1-1.1c-0.9-0.8-1.9-2.3-1.6-5.1c0.3-2.5,1.7-4.7,3.7-6c1.3-0.8,2.7-1.1,3.6-0.8
		c2,0.7,2.7,3.4,2.7,3.7c0.1,0.5-0.2,1.1-0.7,1.2c-0.5,0.1-1.1-0.2-1.2-0.7l0,0c-0.2-0.6-0.7-2-1.4-2.2c-0.2-0.1-1,0-1.9,0.6
		c-0.7,0.5-2.4,1.8-2.8,4.5c-0.2,1.5,0.1,2.7,0.9,3.3s1.8,0.7,2.5,0.5c0.5-0.2,1.1,0.2,1.2,0.7s-0.2,1.1-0.7,1.2
		C-391.9,299.2-392.3,299.3-392.8,299.3z"/>
	<path d="M-396.6,295.8c-0.1,0-0.1,0-0.2,0c-0.2,0-3.8-0.8-4.7-3.5c-0.5-1.5-0.1-3.2,1.4-5.1c1-1.2,2-1.8,3.2-1.7
		c2.1,0.2,3.4,2.4,3.5,2.6c0.3,0.5,0.1,1.1-0.4,1.4s-1.1,0.1-1.4-0.4c-0.2-0.4-1.1-1.6-1.9-1.6c-0.5,0-1,0.3-1.5,1
		c-1,1.3-1.3,2.3-1,3.1c0.5,1.3,2.6,2,3.3,2.2c0.5,0.1,0.9,0.6,0.8,1.2C-395.8,295.5-396.2,295.8-396.6,295.8z"/>
</g>
</svg>
