<?xml version="1.0" encoding="utf-8"?>
<!-- Generator: Adobe Illustrator 19.1.0, SVG Export Plug-In . SVG Version: 6.00 Build 0)  -->
<svg version="1.1" id="Layer_1" xmlns:sketch="http://www.bohemiancoding.com/sketch/ns"
	 xmlns="http://www.w3.org/2000/svg" xmlns:xlink="http://www.w3.org/1999/xlink" x="0px" y="0px" viewBox="-429 240.5 100 81"
	 style="enable-background:new -429 240.5 100 81;" xml:space="preserve">
<title>code</title>
<desc>Created with Sketch.</desc>
<path d="M-332,245.6h-94c-1.7,0-3,1.3-3,3v68c0,1.7,1.3,3,3,3h94c1.7,0,3-1.3,3-3v-68C-329,246.9-330.3,245.6-332,245.6z
	 M-334.9,247.4c1.2,0,2.1,1,2.1,2.1c0,1.2-0.9,2.1-2.1,2.1c-1.2,0-2.1-0.9-2.1-2.1C-337,248.3-336.1,247.4-334.9,247.4z
	 M-340.7,247.4c1.2,0,2.1,1,2.1,2.1c0,1.2-1,2.1-2.1,2.1s-2.1-0.9-2.1-2.1C-342.8,248.3-341.9,247.4-340.7,247.4z M-346.5,247.4
	c1.2,0,2.1,1,2.1,2.1c0,1.2-1,2.1-2.1,2.1s-2.1-0.9-2.1-2.1C-348.6,248.3-347.7,247.4-346.5,247.4z M-332.8,314.4c0,1.1-0.9,2-2,2
	h-89.4c-1.1,0-2-0.9-2-2v-58.9c0-1.1,0.9-2,2-2h89.4c1.1,0,2,0.9,2,2V314.4z"/>
<path d="M-404.4,282.9c-0.5,0.3-0.5,0.7,0,1l11.2,6.2c0.6,0.3,1,0.6,1.2,0.9s0.3,0.6,0.3,1c0,0.5-0.2,1-0.6,1.3
	c-0.4,0.4-0.8,0.6-1.3,0.6c-0.3,0-0.8-0.2-1.5-0.5l-13.6-7.5c-2.4-1.3-2.4-3.5,0-4.8l13.6-7.5c0.7-0.3,1.1-0.5,1.5-0.5
	c0.5,0,1,0.2,1.3,0.6c0.4,0.4,0.6,0.8,0.6,1.3c0,0.4-0.1,0.7-0.3,1s-0.6,0.6-1.2,0.9L-404.4,282.9z"/>
<path d="M-371.3,271l-11.9,25.6c-0.3,0.6-0.6,1.1-0.8,1.2c-0.3,0.3-0.7,0.4-1.1,0.4c-0.5,0-0.9-0.2-1.3-0.5
	c-0.4-0.4-0.6-0.8-0.6-1.2c0-0.3,0.1-0.8,0.4-1.4l12-25.6c0.3-0.6,0.6-1.1,0.8-1.2c0.3-0.3,0.7-0.4,1.1-0.4c0.5,0,0.9,0.2,1.3,0.5
	s0.5,0.8,0.5,1.2C-370.9,269.9-371.1,270.3-371.3,271L-371.3,271z"/>
<path d="M-352.8,283.4l-12.1-6.7c-0.6-0.3-1-0.6-1.2-0.9s-0.3-0.6-0.3-1c0-0.5,0.2-1,0.6-1.3c0.4-0.4,0.8-0.6,1.3-0.6
	c0.3,0,0.8,0.2,1.5,0.5l13.6,7.5c2.4,1.3,2.4,3.5,0,4.8l-13.6,7.5c-0.7,0.4-1.1,0.5-1.5,0.5c-0.5,0-1-0.2-1.3-0.6
	c-0.4-0.4-0.6-0.8-0.6-1.4c0-0.4,0.1-0.7,0.3-1s0.6-0.6,1.2-0.9L-352.8,283.4z"/>
</svg>
