<?xml version="1.0" encoding="utf-8"?>
<!-- Generator: Adobe Illustrator 19.1.0, SVG Export Plug-In . SVG Version: 6.00 Build 0)  -->
<svg version="1.1"
	 id="Layer_1" xmlns:cc="http://creativecommons.org/ns#" xmlns:rdf="http://www.w3.org/1999/02/22-rdf-syntax-ns#" xmlns:dc="http://purl.org/dc/elements/1.1/"
	 xmlns="http://www.w3.org/2000/svg" xmlns:xlink="http://www.w3.org/1999/xlink" x="0px" y="0px" viewBox="-173 -18.9 612 597.9"
	 style="enable-background:new -173 -18.9 612 597.9;" xml:space="preserve">
<style type="text/css">
	.st0{fill:#FFFFFF;}
</style>
<path class="st0" d="M13.1,55.1c-15.3,0-27.5,0.6-36.7,2.4s-16.5,4.9-23.3,9.2c-8.6,5.5-14.1,12.9-17.7,22c-3.7,9.2-4.9,25.7-4.9,49
	v55.7c0,23.3-4.3,39.2-12.2,49c-8.6,9.2-22.6,14.1-42.8,14.1c-1.2,0-2.4,0-4.9,0s-4.3,0-5.5,0v28.8c1.2,0,3.1,0,5.5,0
	c2.4,0,3.7-0.6,4.9-0.6c20.2,0,34.9,4.9,42.8,14.1c8.6,9.2,12.2,25.1,12.2,48.3v55.7c0,22.6,1.8,39.2,4.9,48.3
	c3.7,9.8,9.2,17.1,17.7,22.6c6.1,4.3,14.1,7.3,23.3,9.2c9.2,1.8,21.4,2.4,36.1,2.4h8v-28.2h-8.6c-19,0-32.4-3.7-38.6-11
	c-6.7-7.3-9.8-22-9.8-44.1v-55.1c0-25.1-3.1-42.8-9.8-53.9c-6.7-10.4-18.4-17.7-35.5-22.6c17.1-4.9,28.8-12.2,35.5-23.3
	c6.7-10.4,9.8-28.2,9.8-53.9v-55.1c0-22.6,3.7-37.9,9.8-44.7c6.1-6.7,19-11,37.3-11c1.2,0,3.1,0,4.9,0.6c2.4,0,3.7,0,4.9,0V54.2
	L13.1,55.1L13.1,55.1z M260.3,55.1v28.2h9.2c19,0,31.8,3.7,37.9,11c6.7,7.3,9.8,22,9.8,44.7v55.1c0,25.1,3.1,42.8,9.8,53.9
	c6.7,10.4,18.4,18.4,35.5,23.3c-17.1,4.3-28.8,12.2-35.5,22.6c-6.7,10.4-9.8,28.2-9.8,53.9v54.5c0,22.6-3.1,37.9-9.8,45.3
	c-6.7,7.3-19,11-37.3,11c-1.2,0-2.4,0-4.9,0s-4.3,0-5.5,0v28h9.2c15.3,0,27.5-0.6,36.7-2.4c8.6-1.8,16.5-4.9,22-8.6
	c8-5.5,14.1-12.9,17.1-22.6c3.1-9.8,4.9-26.3,4.9-49.6v-55.1c0-23.3,4.3-39.2,12.9-48.3s22.6-14.1,43.5-14.1c1.2,0,3.1,0,4.9,0.6
	c2.4,0,3.7,0,4.9,0v-28.8c-1.2,0-3.1,0-4.9,0c-2.4,0-4.3,0-4.9,0c-20.2,0-34.9-4.9-43.5-14.1s-12.9-25.7-12.9-48.3v-55.7
	c0-23.3-1.8-39.2-4.9-49s-9.2-17.1-17.1-22c-6.1-4.3-14.1-7.3-23.3-9.2c-9.2-1.8-21.4-3.1-36.1-3.1
	C268.3,55.1,260.3,55.1,260.3,55.1z M12.5,191.6c-11,0-19.6,9.2-19.6,19.6c0,11,9.2,19.6,19.6,19.6c1.2,0,3.1,0,4.3-0.6l61.8,78.3
	c-1.2,2.4-1.8,5.5-1.8,8c0,11,9.2,19.6,19.6,19.6c11,0,19.6-8.6,19.6-19.6c0-3.1-0.6-5.5-1.8-8c0,0,0,0,0.6-0.6
	c1.2-1.2,4.3-2.4,7.3-4.3c6.1-3.7,14.1-8,22.6-12.9c15.3-8.6,26.9-14.7,30-16.5c3.7,3.7,8.6,5.5,14.1,5.5c4.9,0,9.2-1.8,12.2-4.9
	c1.8,1.2,3.1,3.1,5.5,4.9c6.1,4.9,14.1,11,22,17.1c15.9,12.2,31.8,23.9,32.4,24.5c-0.6,1.8-1.2,3.7-1.2,6.1c0,11,9.2,19.6,19.6,19.6
	c11,0,19.6-9.2,19.6-19.6c0-11-9.2-19.6-19.6-19.6c-4.3,0-8,1.2-11.6,3.7c-0.6-0.6-16.5-12.2-31.8-23.9c-8-6.1-15.9-12.9-22-17.1
	c-3.1-2.4-5.5-4.3-6.7-5.5l0,0c0.6-1.2,0.6-3.1,0.6-4.3c0-11-9.2-19.6-19.6-19.6c-11,0-19.6,8.6-19.6,19.6c0,1.2,0,1.8,0,3.1
	c-3.1,1.8-15.3,8.6-30.6,16.5c-8.6,4.9-16.5,9.8-23.3,12.9c-3.1,1.8-5.5,3.1-7.3,4.3c-0.6,0.6-1.2,1.2-1.8,1.2l0,0
	c-3.1-1.8-6.1-2.4-9.8-2.4c-3.1,0-6.1,1.2-9.2,2.4l-60-75.3c3.1-3.7,4.9-8,4.9-12.9C32.1,200.2,22.9,191.6,12.5,191.6L12.5,191.6z
	 M12.5,202c4.9,0,9.2,4.3,9.2,9.2s-4.3,9.2-9.2,9.2s-9.2-4.3-9.2-9.2S7,202,12.5,202z M188.7,252.2c4.9,0,9.2,4.3,9.2,9.2
	s-4.3,9.2-9.2,9.2c-4.9,0-9.2-4.3-9.2-9.2C179.6,255.8,183.8,252.2,188.7,252.2z M207.7,266.2L207.7,266.2L207.7,266.2L207.7,266.2z
	 M96.3,307.3c4.9,0,9.2,4.3,9.2,9.2s-4.3,9.2-9.2,9.2c-4.9,0-9.2-4.3-9.2-9.2C87.1,311.5,90.8,307.3,96.3,307.3z M114.1,308.5
	C114.1,308.5,114.7,308.5,114.1,308.5C114.1,309.1,114.1,308.5,114.1,308.5L114.1,308.5z M279.9,319.5c4.9,0,9.2,4.3,9.2,9.2
	s-4.3,9.2-9.2,9.2s-9.2-4.3-9.2-9.2C270.7,323.2,275,319.5,279.9,319.5z"/>
</svg>
