<?xml version="1.0" encoding="utf-8"?>
<!-- Generator: Adobe Illustrator 19.1.0, SVG Export Plug-In . SVG Version: 6.00 Build 0)  -->
<svg version="1.1"
	 id="Layer_1" xmlns:dc="http://purl.org/dc/elements/1.1/" xmlns:cc="http://creativecommons.org/ns#" xmlns:rdf="http://www.w3.org/1999/02/22-rdf-syntax-ns#"
	 xmlns="http://www.w3.org/2000/svg" xmlns:xlink="http://www.w3.org/1999/xlink" x="0px" y="0px" viewBox="-429 227.5 100 84"
	 style="enable-background:new -429 227.5 100 84;" xml:space="preserve">
<path d="M-399.9,232.9c-2.5,0-4.5,0.1-6,0.4c-1.5,0.3-2.7,0.8-3.8,1.5c-1.4,0.9-2.3,2.1-2.9,3.6c-0.6,1.5-0.8,4.2-0.8,8v9.1
	c0,3.8-0.7,6.4-2,8c-1.4,1.5-3.7,2.3-7,2.3c-0.2,0-0.4,0-0.8,0c-0.4,0-0.7,0-0.9,0v4.7c0.2,0,0.5,0,0.9,0c0.4,0,0.6-0.1,0.8-0.1
	c3.3,0,5.7,0.8,7,2.3c1.4,1.5,2,4.1,2,7.9v9.1c0,3.7,0.3,6.4,0.8,7.9c0.6,1.6,1.5,2.8,2.9,3.7c1,0.7,2.3,1.2,3.8,1.5
	c1.5,0.3,3.5,0.4,5.9,0.4h1.3v-4.6h-1.4c-3.1,0-5.3-0.6-6.3-1.8c-1.1-1.2-1.6-3.6-1.6-7.2v-9c0-4.1-0.5-7-1.6-8.8
	c-1.1-1.7-3-2.9-5.8-3.7c2.8-0.8,4.7-2,5.8-3.8c1.1-1.7,1.6-4.6,1.6-8.8v-9c0-3.7,0.6-6.2,1.6-7.3s3.1-1.8,6.1-1.8
	c0.2,0,0.5,0,0.8,0.1c0.4,0,0.6,0,0.8,0v-4.7L-399.9,232.9L-399.9,232.9z M-359.5,232.9v4.6h1.5c3.1,0,5.2,0.6,6.2,1.8
	c1.1,1.2,1.6,3.6,1.6,7.3v9c0,4.1,0.5,7,1.6,8.8c1.1,1.7,3,3,5.8,3.8c-2.8,0.7-4.7,2-5.8,3.7s-1.6,4.6-1.6,8.8v8.9
	c0,3.7-0.5,6.2-1.6,7.4c-1.1,1.2-3.1,1.8-6.1,1.8c-0.2,0-0.4,0-0.8,0c-0.4,0-0.7,0-0.9,0v4.6h1.5c2.5,0,4.5-0.1,6-0.4
	c1.4-0.3,2.7-0.8,3.6-1.4c1.3-0.9,2.3-2.1,2.8-3.7c0.5-1.6,0.8-4.3,0.8-8.1v-9c0-3.8,0.7-6.4,2.1-7.9c1.4-1.5,3.7-2.3,7.1-2.3
	c0.2,0,0.5,0,0.8,0.1c0.4,0,0.6,0,0.8,0v-4.7c-0.2,0-0.5,0-0.8,0c-0.4,0-0.7,0-0.8,0c-3.3,0-5.7-0.8-7.1-2.3
	c-1.4-1.5-2.1-4.2-2.1-7.9v-9.1c0-3.8-0.3-6.4-0.8-8c-0.5-1.6-1.5-2.8-2.8-3.6c-1-0.7-2.3-1.2-3.8-1.5c-1.5-0.3-3.5-0.5-5.9-0.5
	C-358.2,232.9-359.5,232.9-359.5,232.9z M-400,255.2c-1.8,0-3.2,1.5-3.2,3.2c0,1.8,1.5,3.2,3.2,3.2c0.2,0,0.5,0,0.7-0.1l10.1,12.8
	c-0.2,0.4-0.3,0.9-0.3,1.3c0,1.8,1.5,3.2,3.2,3.2c1.8,0,3.2-1.4,3.2-3.2c0-0.5-0.1-0.9-0.3-1.3c0,0,0,0,0.1-0.1
	c0.2-0.2,0.7-0.4,1.2-0.7c1-0.6,2.3-1.3,3.7-2.1c2.5-1.4,4.4-2.4,4.9-2.7c0.6,0.6,1.4,0.9,2.3,0.9c0.8,0,1.5-0.3,2-0.8
	c0.3,0.2,0.5,0.5,0.9,0.8c1,0.8,2.3,1.8,3.6,2.8c2.6,2,5.2,3.9,5.3,4c-0.1,0.3-0.2,0.6-0.2,1c0,1.8,1.5,3.2,3.2,3.2
	c1.8,0,3.2-1.5,3.2-3.2c0-1.8-1.5-3.2-3.2-3.2c-0.7,0-1.3,0.2-1.9,0.6c-0.1-0.1-2.7-2-5.2-3.9c-1.3-1-2.6-2.1-3.6-2.8
	c-0.5-0.4-0.9-0.7-1.1-0.9c0,0,0,0,0,0c0.1-0.2,0.1-0.5,0.1-0.7c0-1.8-1.5-3.2-3.2-3.2c-1.8,0-3.2,1.4-3.2,3.2c0,0.2,0,0.3,0,0.5
	c-0.5,0.3-2.5,1.4-5,2.7c-1.4,0.8-2.7,1.6-3.8,2.1c-0.5,0.3-0.9,0.5-1.2,0.7c-0.1,0.1-0.2,0.2-0.3,0.2c0,0,0,0,0,0
	c-0.5-0.3-1-0.4-1.6-0.4c-0.5,0-1,0.2-1.5,0.4l-9.8-12.3c0.5-0.6,0.8-1.3,0.8-2.1C-396.8,256.6-398.3,255.2-400,255.2L-400,255.2z
	 M-400,256.9c0.8,0,1.5,0.7,1.5,1.5c0,0.8-0.7,1.5-1.5,1.5c-0.8,0-1.5-0.7-1.5-1.5C-401.5,257.6-400.9,256.9-400,256.9z
	 M-371.2,265.1c0.8,0,1.5,0.7,1.5,1.5c0,0.8-0.7,1.5-1.5,1.5c-0.8,0-1.5-0.7-1.5-1.5C-372.7,265.7-372,265.1-371.2,265.1z
	 M-368.1,267.4C-368.1,267.4-368.1,267.4-368.1,267.4C-368.1,267.4-368.1,267.4-368.1,267.4C-368.1,267.4-368.1,267.4-368.1,267.4z
	 M-386.3,274.1c0.8,0,1.5,0.7,1.5,1.5c0,0.8-0.7,1.5-1.5,1.5c-0.8,0-1.5-0.7-1.5-1.5C-387.8,274.8-387.2,274.1-386.3,274.1z
	 M-383.4,274.3C-383.4,274.3-383.3,274.3-383.4,274.3C-383.4,274.4-383.4,274.3-383.4,274.3C-383.4,274.3-383.4,274.3-383.4,274.3z
	 M-356.3,276.1c0.8,0,1.5,0.7,1.5,1.5c0,0.8-0.7,1.5-1.5,1.5c-0.8,0-1.5-0.7-1.5-1.5C-357.8,276.7-357.1,276.1-356.3,276.1z"/>
</svg>
