<?xml version="1.0" encoding="utf-8"?>
<!-- Generator: Adobe Illustrator 17.1.0, SVG Export Plug-In . SVG Version: 6.00 Build 0)  -->
<!DOCTYPE svg PUBLIC "-//W3C//DTD SVG 1.1//EN" "http://www.w3.org/Graphics/SVG/1.1/DTD/svg11.dtd">
<svg version="1.1" id="Layer_1" xmlns="http://www.w3.org/2000/svg" xmlns:xlink="http://www.w3.org/1999/xlink" x="0px" y="0px"
	 viewBox="0 155.1 612 636.9" enable-background="new 0 155.1 612 636.9" xml:space="preserve">
<path fill="#FFFFFF" d="M74,288.6c6.7,0,12.4-1.7,18-5c18.5,12.9,81.4,57.8,91.6,64c9,5.6,16.9,10.6,28.6,11.2
	c5.6,0,18,0.6,37.1,0.6c3.9,7.9,12.4,13.5,21.9,13.5c13.5,0,24.7-11.2,24.7-24.7c0-13.5-11.2-24.7-24.7-24.7
	c-11.8,0-21.9,8.4-24.1,19.6c-17.4,0-29.2,0-34.2-0.6c-7.3,0-11.8-2.8-20.2-8.4c-9-5.6-68.5-48.3-88.7-62.3
	c2.2-4.5,3.9-10.1,3.9-15.7c0-18.5-15.1-33.1-33.1-33.1s-33.1,15.1-33.1,33.1C41.7,274.1,55.5,288.6,74,288.6z M74,238.6
	c9,0,16.2,7.3,16.2,16.2c0,9-7.3,16.2-16.2,16.2c-9,0-16.2-7.3-16.2-16.2C57.7,245.9,65.1,238.6,74,238.6z"/>
<path fill="#FFFFFF" d="M107.2,440.2h49.4c3.4,9.5,12.4,16.2,23,16.2c13.5,0,24.7-11.2,24.7-24.7S193.1,407,179.6,407
	c-10.6,0-19.6,6.7-23,16.2h-49.4c-3.9-14-16.9-24.7-32-24.7c-18.5,0-33.1,15.1-33.1,33.1c0,18,15.1,33.1,33.1,33.1
	C90.8,465.5,103.8,454.8,107.2,440.2z M58.9,431.8c0-9,7.3-16.2,16.2-16.2c9,0,16.2,7.3,16.2,16.2c0,9-7.3,16.2-16.2,16.2
	C66.2,448.6,58.9,440.8,58.9,431.8z"/>
<path fill="#FFFFFF" d="M114.4,528.9c15.1,0,28.6-10.6,32-24.7h10.1c3.4,9.5,12.4,16.2,23,16.2c13.5,0,24.7-11.2,24.7-24.7
	c0-13.5-11.2-24.7-24.7-24.7c-10.6,0-19.6,6.7-23,16.2h-10.1c-3.9-14-16.9-24.7-32-24.7c-18.5,0-33.1,15.1-33.1,33.1
	S96,528.9,114.4,528.9z M114.4,479c9,0,16.2,7.3,16.2,16.2c0,9-7.3,16.2-16.2,16.2c-9,0-16.2-7.3-16.2-16.2
	C98.2,486.2,105.5,479,114.4,479z"/>
<path fill="#FFFFFF" d="M82.5,658v-57.8c0-26.4,9-32,24.1-32c18.5,0,39.3,0,48.3,0.6c3.4,9.5,12.4,16.2,23.6,16.2
	c13.5,0,24.7-11.2,24.7-24.7c0-13.5-11.2-24.7-24.7-24.7c-10.6,0-19.6,6.7-23,16.2c-9.5,0-30.3-0.6-48.3-0.6
	c-41.6,0-41.6,36.5-41.6,48.8v57.2C51,660.8,39.7,674.3,39.7,690c0,18.5,15.1,33.1,33.1,33.1S106,707.9,106,690
	C106.6,674.9,96.5,662,82.5,658z M72.9,706.3c-9,0-16.2-7.3-16.2-16.2c0-8.9,7.3-16.2,16.2-16.2c9,0,16.2,7.3,16.2,16.2
	C89.7,699,81.9,706.3,72.9,706.3z"/>
<path fill="#FFFFFF" d="M540.6,657.5v-57.2c0-11.8,0-48.8-41-48.8c-18.5,0-39.3,0-48.3,0.6c-3.4-9.5-12.4-16.2-23-16.2
	c-13.5,0-24.7,11.2-24.7,24.7s11.2,24.7,24.7,24.7c10.6,0,19.6-6.7,23.6-16.2c9.5,0,30.3-0.6,48.3-0.6c15.1,0,24.1,5,24.1,32v57.8
	c-14,3.9-24.1,16.9-24.1,32c0,18.5,15.1,33.1,33.1,33.1c18,0,33.1-15.1,33.1-33.1C566.4,674.4,555.2,660.9,540.6,657.5z
	 M533.3,706.3c-9,0-16.2-7.3-16.2-16.2c0-8.9,7.3-16.2,16.2-16.2c8.9,0,16.2,7.3,16.2,16.2C549.5,699,542.3,706.3,533.3,706.3z"/>
<path fill="#FFFFFF" d="M430.5,456.5c9.5,0,18-5.6,21.9-13.5c9.5,0,26.4,0,41,0c38.2,0,38.2-33.7,38.2-45V274
	c13.5-3.4,23.6-15.7,23.6-30.3c0-16.9-14-30.9-30.9-30.9s-30.9,14-30.9,30.8c0,14,9,25.9,21.9,29.7V398c0,23.6-7.3,28.1-21.4,28.1
	c-14,0-29.2,0-38.7,0c-2.2-11.2-12.4-19.6-24.1-19.6c-13.5,0-24.7,11.2-24.7,24.7C405.3,445.3,416.5,456.5,430.5,456.5z
	 M509.7,244.3c0-7.9,6.1-14,14-14s14,6.1,14,14s-6.1,14-14,14C516.4,258.3,509.7,252.1,509.7,244.3z"/>
<path fill="#FFFFFF" d="M428.9,522.2c10.6,0,19.6-6.7,23-16.2h60.6c3.9,14,16.9,24.7,32,24.7c18.5,0,33.1-15.1,33.1-33.1
	c0-18.5-15.1-33.1-33.1-33.1c-15.1,0-28.6,10.6-32,24.7h-60.1c-3.4-9.5-12.4-16.3-23-16.3c-13.5,0-24.7,11.2-24.7,24.7
	C404.8,511,415.4,522.2,428.9,522.2z M545.1,481.2c9,0,16.2,7.3,16.2,16.2s-7.3,16.2-16.2,16.2s-16.2-7.3-16.2-16.2
	C528.3,488.5,536.1,481.2,545.1,481.2z"/>
<path fill="#FFFFFF" d="M258.7,390.2c-19.6,0-35.4,15.7-35.4,35.4v143.8c0,19.6,15.7,35.4,35.4,35.4h90.9
	c19.6,0,35.4-15.7,35.4-35.4V425.6c0-19.6-15.7-35.4-35.4-35.4L258.7,390.2L258.7,390.2z"/>
<path fill="#FFFFFF" d="M223.4,301c15.1,0,28.1-10.1,32-24.1h56.1c6.1,0,11.8,0,14,2.2c1.1,1.1,2.8,3.9,2.8,11.2
	c0,10.1,0,23.6-0.6,34.2c-9,3.9-15.7,12.4-15.7,23c0,13.5,11.2,24.7,24.7,24.7c13.5,0,24.7-11.2,24.7-24.7
	c0-11.2-7.3-20.2-17.4-23.6c0-10.6,0.6-23.6,0.6-33.7c0-10.6-2.2-18.5-7.3-23c-7.3-7.3-16.9-6.7-25.9-6.7h-55.6
	c-3.4-14.6-16.9-25.2-32.6-25.2c-18.5,0-33.1,15.1-33.1,33.1C190.3,285.8,204.9,301,223.4,301z M223.4,251c9,0,16.2,7.3,16.2,16.2
	c0,9-7.3,16.2-16.2,16.2s-16.2-7.3-16.2-16.2C207.1,258.9,214.4,251,223.4,251z"/>
<path fill="#FFFFFF" d="M271.1,623.3c-10.1,0-19.1,6.1-22.5,14.6h-62.3c-11.8,0-36.5,0-36.5,33.1c0,3.9,0,7.9,0,11.2
	c-14.6,3.4-25.2,16.9-25.2,32c0,18.5,15.1,33.1,33.1,33.1s33.1-15.1,33.1-33.1c0-15.1-10.1-28.1-24.1-32c0-3.4-0.6-7.3-0.6-11.2
	c0-15.1,5-16.2,19.6-16.2H247c2.8,10.6,12.4,18,23.6,18c13.5,0,24.7-11.2,24.7-24.7C295.8,634.5,284.6,623.3,271.1,623.3z
	 M174,714.7c0,9-7.3,16.2-16.2,16.2c-9,0-16.2-7.3-16.2-16.2c0-8.9,7.3-16.2,16.2-16.2C166.7,698.5,174,705.2,174,714.7z"/>
<path fill="#FFFFFF" d="M430.5,682.2c0-3.4,0-7.3,0-11.2c0-33.1-24.7-33.1-36.5-33.1h-34.2c-3.9-9-12.4-14.6-22.5-14.6
	c-13.5,0-24.7,11.2-24.7,24.7s11.2,24.7,24.7,24.7c11.2,0,20.7-7.9,23.6-18H394c14.6,0,19.6,1.1,19.6,16.2c0,3.9,0,7.9-0.6,11.2
	c-14,3.9-24.1,16.9-24.1,32c0,18.5,15.1,33.1,33.1,33.1c18.5,0,33.1-15.1,33.1-33.1C455.8,699,445.1,685.6,430.5,682.2z
	 M422.7,731.1c-9,0-16.2-7.3-16.2-16.2c0-8.9,7.3-16.9,16.2-16.9s16.2,7.3,16.2,16.2C439,723.2,431.6,731.1,422.7,731.1z"/>
</svg>
